# xmcd
#
# Track frame offsets:
#	182
#	10122
#	22817
#	33112
#	42922
#	57412
#	70205
#	82410
#	95362
#	103270
#	114920
#	130090
#	144157
#	157080
#	168902
#	180200
#
# Disc length: 2548 seconds
#
# Revision: 0
# Processed by: cddbd v1.4PL0 Copyright (c) Steve Scherf et al.
# Submitted via: audiograbber 1.80.04
#
DISCID=c409f210
DTITLE=Jim Reeves - Special Edition Disc 2
DYEAR=1998
DGENRE=Country
TTITLE0=It Hurts So Much To See You Go
TTITLE1=Not Until The Next Time
TTITLE2=Is It Really Over
TTITLE3=I Won't Come In While He's There
TTITLE4=Guilty
TTITLE5=This World Is Not My Home
TTITLE6=Mexican Joe
TTITLE7=Bimbo
TTITLE8=Trying To Forget
TTITLE9=I Missed Me
TTITLE10=The Blizzard
TTITLE11=This Is It
TTITLE12=Four Walls
TTITLE13=Yonder Comes A Sucker
TTITLE14=According To My Heart
TTITLE15=My Lips Are Sealed
EXTD=
EXTT0=
EXTT1=
EXTT2=
EXTT3=
EXTT4=
EXTT5=
EXTT6=
EXTT7=
EXTT8=
EXTT9=
EXTT10=
EXTT11=
EXTT12=
EXTT13=
EXTT14=
EXTT15=
PLAYORDER=
